<?xml version="1.0" encoding="utf-8"?>
<!-- Generator: Adobe Illustrator 24.1.2, SVG Export Plug-In . SVG Version: 6.00 Build 0)  -->
<svg version="1.1" id="Layer_1" xmlns="http://www.w3.org/2000/svg" xmlns:xlink="http://www.w3.org/1999/xlink" x="0px" y="0px"
	 viewBox="0 0 100 424" style="enable-background:new 0 0 100 424;" xml:space="preserve">
<style type="text/css">
	.st0{fill:#FFFFFF;}
</style>
<g>
	<path class="st0" d="M100,371.76l-10.66-9.66c-5.92-5.41-11.49-9.85-16.71-13.31c-5.22-3.46-10.32-6.07-15.29-7.84
		c-4.97-1.76-9.85-2.64-14.63-2.64c-7.55,0-14.22,1.64-20.01,4.91c-5.79,3.27-10.35,7.93-13.69,13.97c-3.33,6.04-5,13.41-5,22.09
		c0,6.8,1.7,13.47,5.1,20.01c3.4,6.55,8.25,11.77,14.54,15.67c1.39,1.26,2.71,2.3,3.96,3.12c1.26,0.82,2.58,1.23,3.96,1.23
		c1.76,0,3.34-0.82,4.72-2.45c1.39-1.63,2.08-3.4,2.08-5.29c0-1.13-0.31-2.23-0.94-3.3c-0.63-1.07-1.57-2.04-2.83-2.93
		c-5.54-2.64-9.66-6.26-12.37-10.86c-2.71-4.59-4.06-9.35-4.06-14.26c0-5.29,1.07-9.91,3.21-13.88c2.14-3.96,5.1-7.02,8.87-9.16
		c3.78-2.14,8.18-3.21,13.22-3.21c5.41,0,10.98,1.64,16.71,4.91c5.73,3.27,11.87,7.93,18.41,13.97L100,392.55V371.76z"/>
	<path class="st0" d="M100,297.62c-7.86,2.45-17.21,3.68-28.03,3.68c-10.95,0-20.36-1.23-28.23-3.68
		c-7.86-2.45-13.91-5.98-18.13-10.57c-4.22-4.59-6.32-10.23-6.32-16.9c0-6.54,2.11-12.11,6.32-16.71
		c4.22-4.59,10.26-8.12,18.13-10.57c7.87-2.45,17.28-3.68,28.23-3.68c10.82,0,20.17,1.23,28.03,3.68v-16.64
		c-8.51-2.17-17.85-3.28-28.03-3.28c-13.09,0-24.73,1.76-34.93,5.29c-10.2,3.53-18.25,8.78-24.17,15.77
		C6.96,250.98,4,259.7,4,270.15c0,10.45,2.96,19.2,8.87,26.24c5.92,7.05,13.97,12.34,24.17,15.86c10.2,3.53,21.84,5.29,34.93,5.29
		c10.18,0,19.52-1.1,28.03-3.28V297.62z"/>
	<path class="st0" d="M100,153.31l-10.66-9.66c-5.92-5.41-11.49-9.85-16.71-13.31c-5.22-3.46-10.32-6.07-15.29-7.84
		c-4.97-1.76-9.85-2.64-14.63-2.64c-7.55,0-14.22,1.64-20.01,4.91C16.9,128.04,12.34,132.7,9,138.74c-3.33,6.04-5,13.41-5,22.09
		c0,6.8,1.7,13.47,5.1,20.01c3.4,6.55,8.25,11.77,14.54,15.67c1.39,1.26,2.71,2.3,3.96,3.12c1.26,0.82,2.58,1.23,3.96,1.23
		c1.76,0,3.34-0.82,4.72-2.45c1.39-1.63,2.08-3.4,2.08-5.29c0-1.13-0.31-2.23-0.94-3.3c-0.63-1.07-1.57-2.04-2.83-2.93
		c-5.54-2.64-9.66-6.26-12.37-10.86c-2.71-4.59-4.06-9.35-4.06-14.26c0-5.29,1.07-9.91,3.21-13.88c2.14-3.96,5.1-7.02,8.87-9.16
		c3.78-2.14,8.18-3.21,13.22-3.21c5.41,0,10.98,1.64,16.71,4.91c5.73,3.27,11.87,7.93,18.41,13.97L100,174.1V153.31z"/>
	<path class="st0" d="M100,79.17c-7.86,2.45-17.21,3.68-28.03,3.68c-10.95,0-20.36-1.23-28.23-3.68
		c-7.86-2.45-13.91-5.98-18.13-10.57C21.4,64,19.29,58.37,19.29,51.7c0-6.54,2.11-12.11,6.32-16.71
		c4.22-4.59,10.26-8.12,18.13-10.57c7.87-2.45,17.28-3.68,28.23-3.68c10.82,0,20.17,1.23,28.03,3.68V7.77
		C91.49,5.6,82.15,4.49,71.97,4.49c-13.09,0-24.73,1.76-34.93,5.29c-10.2,3.53-18.25,8.78-24.17,15.77C6.96,32.53,4,41.25,4,51.7
		c0,10.45,2.96,19.2,8.87,26.24c5.92,7.05,13.97,12.34,24.17,15.86c10.2,3.53,21.84,5.29,34.93,5.29c10.18,0,19.52-1.1,28.03-3.28
		V79.17z"/>
</g>
</svg>
