<?xml version="1.0" encoding="utf-8"?>
<!-- Generator: Adobe Illustrator 24.1.2, SVG Export Plug-In . SVG Version: 6.00 Build 0)  -->
<svg version="1.1" id="Layer_1" xmlns="http://www.w3.org/2000/svg" xmlns:xlink="http://www.w3.org/1999/xlink" x="0px" y="0px"
	 viewBox="0 0 65.6 62.47" style="enable-background:new 0 0 65.6 62.47;" xml:space="preserve">
<style type="text/css">
	.st0{opacity:0.06;}
	.st1{fill:#FF5E46;}
</style>
<g class="st0">
	<path class="st1" d="M27.11,35.41l-1.1,8.03c0-0.01-0.01-0.02-0.01-0.03c-0.55-1.3-1.09-2.6-1.66-3.89
		c-0.03-0.07-0.07-0.15-0.1-0.22c-0.25-0.57-0.51-1.14-0.78-1.71c-0.8-1.75-1.63-3.49-2.32-5.29c-0.56-1.47-0.87-3.04-0.88-4.61
		c0-0.78,0.08-1.59,0.21-2.36c0.18-1.06,0.59-2.07,1.2-2.96c0.7-1.01,1.51-1.93,2.58-2.54c0.79-0.45,1.67-0.75,2.57-0.84
		c0.03,0,0.06-0.01,0.09-0.01c1.84-0.15,3.85,0.69,5.14,1.97c0.05,0.05,0.1,0.1,0.15,0.15c0.25,0.26,0.47,0.53,0.67,0.82
		c-0.41,1.41-1.47,5.5-1.47,5.5s-1.19-1.93-1.3-1.68c-0.11,0.25-2.05,10.71-2.05,10.71L27.11,35.41z"/>
	<path class="st1" d="M41.91,37.27c-0.22,0.19-0.45,0.38-0.68,0.56c-0.57,0.44-1.17,0.82-1.8,1.16c-2.7,1.46-5.73,2.13-8.64,3.02
		c-1.11,0.34-2.22,0.7-3.33,1.06c-0.43,0.14-0.86,0.28-1.28,0.43c-0.04,0.01-0.07,0.02-0.1,0.01l2.19-4.83l1.13,0.96l3.23-9.2
		l1.72,1.94l3.55-8.21c1.23-0.13,2.41,0.05,3.55,0.58c1.63,0.75,2.92,2.11,3.53,3.82c0.02,0.06,0.04,0.13,0.07,0.19
		c0.48,1.49,0.34,3.13-0.21,4.58C44.25,34.88,43.15,36.19,41.91,37.27z"/>
</g>
</svg>
