<?xml version="1.0" encoding="utf-8"?>
<!-- Generator: Adobe Illustrator 24.1.2, SVG Export Plug-In . SVG Version: 6.00 Build 0)  -->
<svg version="1.1" id="Layer_1" focusable="false" xmlns="http://www.w3.org/2000/svg" xmlns:xlink="http://www.w3.org/1999/xlink"
	 x="0px" y="0px" viewBox="0 0 320 512" style="enable-background:new 0 0 320 512;" xml:space="preserve">
<style type="text/css">
	.st0{fill:#FFFFFF;}
</style>
<path class="st0" d="M193.94,256L296.5,153.44l21.15-21.15c3.12-3.12,3.12-8.19,0-11.31l-22.63-22.63c-3.12-3.12-8.19-3.12-11.31,0
	L160,222.06L36.29,98.34c-3.12-3.12-8.19-3.12-11.31,0L2.34,120.97c-3.12,3.12-3.12,8.19,0,11.31L126.06,256L2.34,379.71
	c-3.12,3.12-3.12,8.19,0,11.31l22.63,22.63c3.12,3.12,8.19,3.12,11.31,0L160,289.94L262.56,392.5l21.15,21.15
	c3.12,3.12,8.19,3.12,11.31,0l22.63-22.63c3.12-3.12,3.12-8.19,0-11.31L193.94,256z"/>
</svg>
