<?xml version="1.0" encoding="utf-8"?>
<!-- Generator: Adobe Illustrator 24.1.2, SVG Export Plug-In . SVG Version: 6.00 Build 0)  -->
<svg version="1.1" id="Layer_1" xmlns="http://www.w3.org/2000/svg" xmlns:xlink="http://www.w3.org/1999/xlink" x="0px" y="0px"
	 viewBox="0 0 275 40" style="enable-background:new 0 0 275 40;" xml:space="preserve">
<style type="text/css">
	.st0{fill:#FFFFFF;}
</style>
<g>
	<path class="st0" d="M17.54,25.18l3.45,11.51c-0.01-0.01-0.02-0.02-0.04-0.03c-1.54-1.41-3.07-2.84-4.63-4.23
		c-0.09-0.08-0.18-0.16-0.27-0.24c-0.69-0.62-1.39-1.23-2.1-1.84c-2.16-1.87-4.35-3.71-6.38-5.71c-1.66-1.64-3.04-3.56-4.01-5.68
		c-0.48-1.05-0.87-2.2-1.16-3.31c-0.41-1.54-0.47-3.16-0.19-4.73C2.53,9.13,3.06,7.39,4.13,5.9c0.78-1.09,1.8-2.04,2.96-2.71
		C7.13,3.16,7.17,3.14,7.2,3.12c2.38-1.33,5.61-1.43,8.15-0.5c0.1,0.04,0.19,0.07,0.29,0.11c0.49,0.2,0.96,0.43,1.4,0.7
		c0.31,2.15,1.39,8.33,1.39,8.33s-2.79-1.88-2.79-1.47c0,0.41,3.8,15.72,3.8,15.72L17.54,25.18z"/>
	<path class="st0" d="M38.65,18.61c-0.18,0.4-0.37,0.79-0.58,1.17c-0.49,0.94-1.08,1.83-1.72,2.67c-2.74,3.63-6.42,6.39-9.8,9.38
		c-1.29,1.14-2.56,2.31-3.84,3.47c-0.5,0.45-0.98,0.91-1.47,1.37c-0.05,0.04-0.09,0.07-0.13,0.08v-7.86l2.11,0.61l-1.28-14.4
		l3.52,1.55L25.21,3.4c1.57-0.93,3.28-1.41,5.14-1.4c2.66,0.02,5.24,1.06,7.1,2.98c0.07,0.07,0.14,0.15,0.21,0.22
		c1.56,1.72,2.38,4.01,2.52,6.31C40.34,13.95,39.66,16.39,38.65,18.61z"/>
</g>
<g>
	<path class="st0" d="M58.51,13c1.48,0,2.64,0.32,3.5,0.96c0.86,0.64,1.48,1.49,1.84,2.55c0.37,1.06,0.55,2.24,0.55,3.54v9.19
		c0,0.38-0.13,0.7-0.39,0.97c-0.26,0.27-0.58,0.4-0.96,0.4c-0.4,0-0.73-0.13-0.97-0.4c-0.25-0.27-0.37-0.59-0.37-0.97v-9.19
		c0-0.83-0.12-1.59-0.37-2.28c-0.25-0.69-0.65-1.25-1.22-1.66c-0.57-0.41-1.35-0.62-2.33-0.62c-0.92,0-1.76,0.21-2.51,0.62
		c-0.76,0.41-1.36,0.97-1.81,1.66c-0.45,0.69-0.67,1.45-0.67,2.28v9.19c0,0.38-0.13,0.7-0.39,0.97c-0.26,0.27-0.58,0.4-0.96,0.4
		c-0.38,0-0.7-0.13-0.96-0.4c-0.26-0.27-0.39-0.59-0.39-0.97V7.16c0-0.38,0.13-0.7,0.39-0.97c0.26-0.27,0.58-0.4,0.96-0.4
		c0.4,0,0.73,0.13,0.97,0.4c0.25,0.27,0.37,0.59,0.37,0.97v9.99l-0.67,0.74c0.11-0.58,0.36-1.17,0.74-1.76
		c0.38-0.59,0.86-1.12,1.44-1.59c0.58-0.47,1.23-0.84,1.94-1.12C56.98,13.14,57.73,13,58.51,13z"/>
	<path class="st0" d="M77.22,30.93c-1.79,0-3.35-0.38-4.69-1.14c-1.34-0.76-2.39-1.8-3.13-3.13c-0.75-1.33-1.12-2.87-1.12-4.61
		c0-1.94,0.39-3.6,1.16-4.98c0.77-1.37,1.78-2.43,3.02-3.15c1.24-0.73,2.55-1.09,3.94-1.09c1.05,0,2.05,0.19,3,0.57
		c0.95,0.38,1.8,0.94,2.55,1.68c0.75,0.74,1.35,1.61,1.79,2.62c0.45,1.01,0.68,2.15,0.7,3.42c-0.02,0.36-0.17,0.65-0.44,0.89
		c-0.27,0.23-0.58,0.35-0.94,0.35H69.81l-0.6-2.31h12.91l-0.54,0.47v-0.74c-0.09-0.92-0.4-1.7-0.92-2.36
		c-0.53-0.66-1.16-1.17-1.91-1.53c-0.75-0.36-1.54-0.54-2.36-0.54c-0.67,0-1.34,0.12-1.99,0.37c-0.66,0.25-1.25,0.63-1.78,1.14
		c-0.53,0.51-0.94,1.19-1.26,2.01c-0.31,0.83-0.47,1.82-0.47,2.98c0,1.3,0.26,2.44,0.79,3.42c0.52,0.98,1.26,1.76,2.2,2.33
		c0.94,0.57,2.02,0.85,3.25,0.85c0.8,0,1.49-0.1,2.06-0.3c0.57-0.2,1.07-0.45,1.49-0.75c0.42-0.3,0.78-0.61,1.07-0.92
		c0.29-0.2,0.57-0.3,0.84-0.3c0.34,0,0.61,0.11,0.84,0.34c0.22,0.22,0.34,0.49,0.34,0.8c0,0.38-0.19,0.73-0.57,1.04
		c-0.63,0.69-1.48,1.3-2.55,1.81C79.56,30.68,78.42,30.93,77.22,30.93z"/>
	<path class="st0" d="M102.53,13.1c0.4,0,0.73,0.13,0.97,0.39c0.25,0.26,0.37,0.58,0.37,0.96v14.79c0,0.38-0.13,0.7-0.39,0.97
		c-0.26,0.27-0.58,0.4-0.96,0.4c-0.4,0-0.73-0.13-0.97-0.4c-0.25-0.27-0.37-0.59-0.37-0.97v-3.19l0.64-0.07
		c0,0.51-0.17,1.06-0.5,1.63c-0.34,0.57-0.79,1.11-1.37,1.61c-0.58,0.5-1.27,0.92-2.06,1.24c-0.79,0.32-1.64,0.49-2.53,0.49
		c-1.54,0-2.92-0.4-4.12-1.19c-1.21-0.79-2.16-1.87-2.87-3.24c-0.7-1.36-1.06-2.92-1.06-4.66c0-1.77,0.35-3.32,1.06-4.68
		c0.7-1.35,1.66-2.41,2.87-3.19c1.21-0.77,2.55-1.16,4.02-1.16c0.96,0,1.86,0.16,2.68,0.47c0.83,0.31,1.55,0.74,2.16,1.27
		c0.61,0.54,1.09,1.13,1.44,1.78c0.35,0.65,0.52,1.3,0.52,1.94l-0.87-0.2v-3.65c0-0.38,0.12-0.7,0.37-0.96
		C101.8,13.23,102.13,13.1,102.53,13.1z M95.62,28.45c1.12,0,2.11-0.29,2.97-0.87c0.86-0.58,1.53-1.37,2.01-2.36
		c0.48-0.99,0.72-2.12,0.72-3.37c0-1.23-0.24-2.34-0.72-3.32c-0.48-0.98-1.15-1.77-2.01-2.35c-0.86-0.58-1.85-0.87-2.97-0.87
		c-1.1,0-2.07,0.28-2.93,0.85c-0.86,0.57-1.54,1.35-2.03,2.33c-0.49,0.98-0.74,2.1-0.74,3.35c0,1.25,0.25,2.38,0.74,3.37
		c0.49,0.99,1.17,1.78,2.03,2.36C93.55,28.16,94.53,28.45,95.62,28.45z"/>
	<path class="st0" d="M110.18,30.6c-0.38,0-0.7-0.13-0.96-0.4c-0.26-0.27-0.39-0.59-0.39-0.97V14.64c0-0.4,0.13-0.73,0.39-0.99
		c0.26-0.26,0.58-0.39,0.96-0.39c0.4,0,0.73,0.13,0.97,0.39c0.25,0.26,0.37,0.59,0.37,0.99v4.39l-0.4-0.7
		c0.13-0.69,0.37-1.37,0.72-2.03c0.35-0.66,0.79-1.25,1.32-1.78c0.54-0.52,1.15-0.94,1.84-1.24c0.69-0.3,1.45-0.45,2.28-0.45
		c0.49,0,0.94,0.12,1.36,0.35c0.41,0.23,0.62,0.56,0.62,0.99c0,0.47-0.12,0.82-0.37,1.06c-0.25,0.23-0.53,0.35-0.84,0.35
		c-0.29,0-0.57-0.07-0.84-0.2c-0.27-0.13-0.6-0.2-1.01-0.2c-0.56,0-1.11,0.16-1.66,0.47c-0.55,0.31-1.05,0.74-1.51,1.29
		c-0.46,0.55-0.83,1.17-1.11,1.88c-0.28,0.7-0.42,1.46-0.42,2.26v8.15c0,0.38-0.13,0.7-0.39,0.97
		C110.87,30.46,110.56,30.6,110.18,30.6z"/>
	<path class="st0" d="M121.61,13.36h7.88c0.36,0,0.65,0.12,0.89,0.37c0.23,0.25,0.35,0.55,0.35,0.91c0,0.34-0.12,0.62-0.35,0.85
		c-0.23,0.23-0.53,0.35-0.89,0.35h-7.88c-0.34,0-0.63-0.12-0.89-0.37c-0.26-0.25-0.39-0.54-0.39-0.87c0-0.36,0.13-0.65,0.39-0.89
		C120.98,13.48,121.27,13.36,121.61,13.36z M125.13,8.8c0.38,0,0.69,0.13,0.94,0.4c0.25,0.27,0.37,0.59,0.37,0.97v16.16
		c0,0.54,0.08,0.94,0.23,1.21c0.16,0.27,0.36,0.45,0.62,0.55c0.26,0.1,0.51,0.15,0.75,0.15c0.22,0,0.42-0.04,0.59-0.12
		c0.17-0.08,0.36-0.12,0.59-0.12c0.22,0,0.43,0.11,0.62,0.32c0.19,0.21,0.28,0.49,0.28,0.82c0,0.4-0.23,0.74-0.7,1.02
		c-0.47,0.28-0.99,0.42-1.58,0.42c-0.31,0-0.7-0.02-1.16-0.07c-0.46-0.04-0.91-0.19-1.36-0.44c-0.45-0.25-0.82-0.65-1.12-1.22
		c-0.3-0.57-0.45-1.37-0.45-2.4v-16.3c0-0.38,0.13-0.7,0.4-0.97C124.42,8.94,124.75,8.8,125.13,8.8z"/>
	<path class="st0" d="M143,12.83c1.52,0,2.88,0.39,4.09,1.16c1.21,0.77,2.16,1.83,2.87,3.17c0.7,1.34,1.06,2.9,1.06,4.66
		c0,1.77-0.35,3.33-1.06,4.69c-0.7,1.36-1.65,2.44-2.85,3.24c-1.2,0.79-2.54,1.19-4.04,1.19c-0.83,0-1.6-0.13-2.33-0.39
		c-0.73-0.26-1.39-0.6-1.98-1.04c-0.59-0.44-1.09-0.91-1.49-1.42c-0.4-0.51-0.69-1.04-0.87-1.58l0.74-0.44v3.32
		c0,0.38-0.12,0.7-0.37,0.97c-0.25,0.27-0.57,0.4-0.97,0.4c-0.38,0-0.7-0.13-0.96-0.39c-0.26-0.26-0.39-0.59-0.39-0.99V7.16
		c0-0.38,0.13-0.7,0.39-0.97c0.26-0.27,0.58-0.4,0.96-0.4c0.4,0,0.73,0.13,0.97,0.4c0.25,0.27,0.37,0.59,0.37,0.97v10.33l-0.5-0.27
		c0.16-0.56,0.43-1.1,0.82-1.63c0.39-0.52,0.87-0.99,1.44-1.41c0.57-0.41,1.21-0.74,1.91-0.99C141.51,12.95,142.24,12.83,143,12.83z
		 M142.7,15.31c-1.12,0-2.11,0.28-2.97,0.85c-0.86,0.57-1.53,1.34-2.01,2.31c-0.48,0.97-0.72,2.08-0.72,3.34
		c0,1.25,0.24,2.38,0.72,3.39c0.48,1.01,1.15,1.8,2.01,2.38c0.86,0.58,1.85,0.87,2.97,0.87c1.12,0,2.1-0.29,2.95-0.87
		c0.85-0.58,1.52-1.37,2.01-2.38c0.49-1.01,0.74-2.13,0.74-3.39c0-1.25-0.25-2.36-0.74-3.34c-0.49-0.97-1.16-1.74-2.01-2.31
		C144.8,15.59,143.82,15.31,142.7,15.31z"/>
	<path class="st0" d="M156.21,30.6c-0.38,0-0.7-0.13-0.96-0.4c-0.26-0.27-0.39-0.59-0.39-0.97V14.64c0-0.4,0.13-0.73,0.39-0.99
		c0.26-0.26,0.58-0.39,0.96-0.39c0.4,0,0.73,0.13,0.97,0.39c0.25,0.26,0.37,0.59,0.37,0.99v4.39l-0.4-0.7
		c0.13-0.69,0.37-1.37,0.72-2.03c0.35-0.66,0.79-1.25,1.32-1.78c0.54-0.52,1.15-0.94,1.84-1.24c0.69-0.3,1.45-0.45,2.28-0.45
		c0.49,0,0.94,0.12,1.36,0.35c0.41,0.23,0.62,0.56,0.62,0.99c0,0.47-0.12,0.82-0.37,1.06c-0.25,0.23-0.53,0.35-0.84,0.35
		c-0.29,0-0.57-0.07-0.84-0.2c-0.27-0.13-0.6-0.2-1.01-0.2c-0.56,0-1.11,0.16-1.66,0.47c-0.55,0.31-1.05,0.74-1.51,1.29
		c-0.46,0.55-0.83,1.17-1.11,1.88c-0.28,0.7-0.42,1.46-0.42,2.26v8.15c0,0.38-0.13,0.7-0.39,0.97
		C156.91,30.46,156.59,30.6,156.21,30.6z"/>
	<path class="st0" d="M175.42,30.93c-1.79,0-3.35-0.38-4.69-1.14c-1.34-0.76-2.39-1.8-3.13-3.13c-0.75-1.33-1.12-2.87-1.12-4.61
		c0-1.94,0.39-3.6,1.16-4.98s1.78-2.43,3.02-3.15c1.24-0.73,2.55-1.09,3.94-1.09c1.05,0,2.05,0.19,3,0.57
		c0.95,0.38,1.8,0.94,2.55,1.68c0.75,0.74,1.35,1.61,1.79,2.62c0.45,1.01,0.68,2.15,0.7,3.42c-0.02,0.36-0.17,0.65-0.44,0.89
		c-0.27,0.23-0.58,0.35-0.94,0.35h-13.24l-0.6-2.31h12.91l-0.54,0.47v-0.74c-0.09-0.92-0.4-1.7-0.92-2.36
		c-0.53-0.66-1.16-1.17-1.91-1.53c-0.75-0.36-1.54-0.54-2.36-0.54c-0.67,0-1.34,0.12-1.99,0.37c-0.66,0.25-1.25,0.63-1.78,1.14
		c-0.53,0.51-0.94,1.19-1.26,2.01c-0.31,0.83-0.47,1.82-0.47,2.98c0,1.3,0.26,2.44,0.79,3.42c0.52,0.98,1.26,1.76,2.2,2.33
		c0.94,0.57,2.02,0.85,3.25,0.85c0.8,0,1.49-0.1,2.06-0.3c0.57-0.2,1.07-0.45,1.49-0.75c0.42-0.3,0.78-0.61,1.07-0.92
		c0.29-0.2,0.57-0.3,0.84-0.3c0.34,0,0.61,0.11,0.84,0.34c0.22,0.22,0.34,0.49,0.34,0.8c0,0.38-0.19,0.73-0.57,1.04
		c-0.63,0.69-1.48,1.3-2.55,1.81C177.77,30.68,176.63,30.93,175.42,30.93z"/>
	<path class="st0" d="M200.74,13.1c0.4,0,0.73,0.13,0.97,0.39c0.25,0.26,0.37,0.58,0.37,0.96v14.79c0,0.38-0.13,0.7-0.39,0.97
		c-0.26,0.27-0.58,0.4-0.96,0.4c-0.4,0-0.73-0.13-0.97-0.4c-0.25-0.27-0.37-0.59-0.37-0.97v-3.19l0.64-0.07
		c0,0.51-0.17,1.06-0.5,1.63c-0.34,0.57-0.79,1.11-1.37,1.61c-0.58,0.5-1.27,0.92-2.06,1.24c-0.79,0.32-1.64,0.49-2.53,0.49
		c-1.54,0-2.92-0.4-4.12-1.19c-1.21-0.79-2.16-1.87-2.87-3.24c-0.7-1.36-1.06-2.92-1.06-4.66c0-1.77,0.35-3.32,1.06-4.68
		c0.7-1.35,1.66-2.41,2.87-3.19c1.21-0.77,2.55-1.16,4.02-1.16c0.96,0,1.86,0.16,2.68,0.47c0.83,0.31,1.55,0.74,2.16,1.27
		c0.61,0.54,1.09,1.13,1.44,1.78c0.35,0.65,0.52,1.3,0.52,1.94l-0.87-0.2v-3.65c0-0.38,0.12-0.7,0.37-0.96
		C200.01,13.23,200.33,13.1,200.74,13.1z M193.83,28.45c1.12,0,2.11-0.29,2.97-0.87c0.86-0.58,1.53-1.37,2.01-2.36
		c0.48-0.99,0.72-2.12,0.72-3.37c0-1.23-0.24-2.34-0.72-3.32c-0.48-0.98-1.15-1.77-2.01-2.35c-0.86-0.58-1.85-0.87-2.97-0.87
		c-1.1,0-2.07,0.28-2.93,0.85c-0.86,0.57-1.54,1.35-2.03,2.33c-0.49,0.98-0.74,2.1-0.74,3.35c0,1.25,0.25,2.38,0.74,3.37
		c0.49,0.99,1.17,1.78,2.03,2.36C191.76,28.16,192.73,28.45,193.83,28.45z"/>
	<path class="st0" d="M208.65,30.6c-0.4,0-0.73-0.13-0.99-0.4c-0.26-0.27-0.39-0.59-0.39-0.97V7.16c0-0.38,0.13-0.7,0.39-0.97
		c0.26-0.27,0.59-0.4,0.99-0.4c0.38,0,0.7,0.13,0.96,0.4c0.26,0.27,0.39,0.59,0.39,0.97v22.06c0,0.38-0.13,0.7-0.39,0.97
		C209.35,30.46,209.03,30.6,208.65,30.6z M219.78,13.16c0.36,0,0.66,0.14,0.92,0.42c0.26,0.28,0.39,0.58,0.39,0.89
		c0,0.36-0.18,0.69-0.54,1.01l-10.86,9.49l-0.1-3.15l9.22-8.25C219.1,13.3,219.42,13.16,219.78,13.16z M220.15,30.57
		c-0.4,0-0.74-0.15-1.01-0.44L212,22.52l2.01-1.84l7.07,7.58c0.27,0.29,0.4,0.63,0.4,1.01c0,0.4-0.16,0.72-0.47,0.96
		C220.71,30.45,220.42,30.57,220.15,30.57z"/>
	<path class="st0" d="M232.49,30.93c-1.79,0-3.35-0.38-4.69-1.14c-1.34-0.76-2.39-1.8-3.13-3.13c-0.75-1.33-1.12-2.87-1.12-4.61
		c0-1.94,0.39-3.6,1.16-4.98c0.77-1.37,1.78-2.43,3.02-3.15c1.24-0.73,2.55-1.09,3.94-1.09c1.05,0,2.05,0.19,3,0.57
		c0.95,0.38,1.8,0.94,2.55,1.68c0.75,0.74,1.35,1.61,1.79,2.62c0.45,1.01,0.68,2.15,0.7,3.42c-0.02,0.36-0.17,0.65-0.44,0.89
		c-0.27,0.23-0.58,0.35-0.94,0.35h-13.24l-0.6-2.31h12.91l-0.54,0.47v-0.74c-0.09-0.92-0.4-1.7-0.92-2.36
		c-0.53-0.66-1.16-1.17-1.91-1.53c-0.75-0.36-1.54-0.54-2.36-0.54c-0.67,0-1.34,0.12-1.99,0.37c-0.66,0.25-1.25,0.63-1.78,1.14
		c-0.53,0.51-0.94,1.19-1.26,2.01c-0.31,0.83-0.47,1.82-0.47,2.98c0,1.3,0.26,2.44,0.79,3.42c0.52,0.98,1.26,1.76,2.2,2.33
		c0.94,0.57,2.02,0.85,3.25,0.85c0.8,0,1.49-0.1,2.06-0.3c0.57-0.2,1.07-0.45,1.49-0.75c0.42-0.3,0.78-0.61,1.07-0.92
		c0.29-0.2,0.57-0.3,0.84-0.3c0.34,0,0.61,0.11,0.84,0.34c0.22,0.22,0.34,0.49,0.34,0.8c0,0.38-0.19,0.73-0.57,1.04
		c-0.63,0.69-1.48,1.3-2.55,1.81C234.83,30.68,233.69,30.93,232.49,30.93z"/>
	<path class="st0" d="M244.89,30.6c-0.38,0-0.7-0.13-0.96-0.4c-0.26-0.27-0.39-0.59-0.39-0.97V14.64c0-0.4,0.13-0.73,0.39-0.99
		c0.26-0.26,0.58-0.39,0.96-0.39c0.4,0,0.73,0.13,0.97,0.39c0.25,0.26,0.37,0.59,0.37,0.99v4.39l-0.4-0.7
		c0.13-0.69,0.37-1.37,0.72-2.03c0.35-0.66,0.79-1.25,1.32-1.78c0.54-0.52,1.15-0.94,1.84-1.24c0.69-0.3,1.45-0.45,2.28-0.45
		c0.49,0,0.94,0.12,1.36,0.35c0.41,0.23,0.62,0.56,0.62,0.99c0,0.47-0.12,0.82-0.37,1.06c-0.25,0.23-0.53,0.35-0.84,0.35
		c-0.29,0-0.57-0.07-0.84-0.2c-0.27-0.13-0.6-0.2-1.01-0.2c-0.56,0-1.11,0.16-1.66,0.47c-0.55,0.31-1.05,0.74-1.51,1.29
		c-0.46,0.55-0.83,1.17-1.11,1.88c-0.28,0.7-0.42,1.46-0.42,2.26v8.15c0,0.38-0.13,0.7-0.39,0.97
		C245.59,30.46,245.27,30.6,244.89,30.6z"/>
	<path class="st0" d="M255.99,27.85c-0.18-0.29-0.26-0.6-0.25-0.92c0.01-0.32,0.2-0.61,0.55-0.85c0.25-0.16,0.52-0.22,0.82-0.2
		c0.3,0.02,0.58,0.17,0.82,0.44c0.63,0.74,1.34,1.32,2.15,1.76c0.8,0.44,1.79,0.65,2.95,0.65c0.51-0.02,1.04-0.11,1.59-0.27
		c0.55-0.16,1.01-0.43,1.37-0.82c0.37-0.39,0.55-0.91,0.55-1.56c0-0.63-0.19-1.12-0.57-1.49c-0.38-0.37-0.88-0.67-1.49-0.91
		c-0.61-0.23-1.27-0.44-1.96-0.62c-0.74-0.2-1.46-0.42-2.18-0.67c-0.72-0.25-1.36-0.56-1.93-0.96c-0.57-0.39-1.03-0.88-1.37-1.48
		c-0.35-0.59-0.52-1.32-0.52-2.2c0-1.01,0.27-1.88,0.82-2.62c0.55-0.74,1.28-1.31,2.2-1.71c0.92-0.4,1.93-0.6,3.05-0.6
		c0.63,0,1.28,0.07,1.96,0.22c0.68,0.15,1.35,0.39,1.99,0.74c0.65,0.35,1.22,0.82,1.71,1.43c0.2,0.22,0.31,0.5,0.34,0.84
		c0.02,0.34-0.12,0.64-0.44,0.91c-0.25,0.18-0.52,0.26-0.82,0.25c-0.3-0.01-0.55-0.12-0.75-0.32c-0.49-0.58-1.09-1.02-1.79-1.32
		c-0.7-0.3-1.48-0.45-2.33-0.45c-0.51,0-1.03,0.08-1.54,0.25c-0.51,0.17-0.94,0.43-1.29,0.79c-0.35,0.36-0.52,0.86-0.52,1.51
		c0.02,0.6,0.22,1.1,0.6,1.48c0.38,0.38,0.89,0.69,1.54,0.92c0.65,0.23,1.36,0.46,2.15,0.69c0.72,0.18,1.4,0.39,2.06,0.62
		c0.66,0.23,1.26,0.54,1.79,0.92c0.54,0.38,0.96,0.87,1.27,1.46c0.31,0.59,0.47,1.34,0.47,2.23c0,1.03-0.29,1.92-0.87,2.67
		c-0.58,0.75-1.35,1.32-2.3,1.71c-0.95,0.39-1.97,0.59-3.07,0.59c-1.23,0-2.45-0.23-3.65-0.69
		C257.9,29.79,256.86,28.99,255.99,27.85z"/>
</g>
</svg>
