<?xml version="1.0" encoding="utf-8"?>
<!-- Generator: Adobe Illustrator 24.1.2, SVG Export Plug-In . SVG Version: 6.00 Build 0)  -->
<svg version="1.1" id="Layer_1" xmlns="http://www.w3.org/2000/svg" xmlns:xlink="http://www.w3.org/1999/xlink" x="0px" y="0px"
	 viewBox="0 0 42 40" style="enable-background:new 0 0 42 40;" xml:space="preserve">
<style type="text/css">
	.st0{fill:#FF5E46;}
</style>
<g>
	<path class="st0" d="M17.54,25.18l3.45,11.51c-0.01-0.01-0.02-0.02-0.04-0.03c-1.54-1.41-3.07-2.84-4.63-4.23
		c-0.09-0.08-0.18-0.16-0.27-0.24c-0.69-0.62-1.39-1.23-2.1-1.84c-2.16-1.87-4.35-3.71-6.38-5.71c-1.66-1.64-3.04-3.56-4.01-5.68
		c-0.48-1.05-0.87-2.2-1.16-3.31c-0.41-1.54-0.47-3.16-0.19-4.73C2.53,9.13,3.06,7.39,4.13,5.9c0.78-1.09,1.8-2.04,2.96-2.71
		C7.13,3.16,7.17,3.14,7.2,3.12c2.38-1.33,5.61-1.43,8.15-0.5c0.1,0.04,0.19,0.07,0.29,0.11c0.49,0.2,0.96,0.43,1.4,0.7
		c0.31,2.15,1.39,8.33,1.39,8.33s-2.79-1.88-2.79-1.47c0,0.41,3.8,15.72,3.8,15.72L17.54,25.18z"/>
	<path class="st0" d="M38.65,18.61c-0.18,0.4-0.37,0.79-0.58,1.17c-0.49,0.94-1.08,1.83-1.72,2.67c-2.74,3.63-6.42,6.39-9.8,9.38
		c-1.29,1.14-2.56,2.31-3.84,3.47c-0.5,0.45-0.98,0.91-1.47,1.37c-0.05,0.04-0.09,0.07-0.13,0.08v-7.86l2.11,0.61l-1.28-14.4
		l3.52,1.55L25.21,3.4c1.57-0.93,3.28-1.41,5.14-1.4c2.66,0.02,5.24,1.06,7.1,2.98c0.07,0.07,0.14,0.15,0.21,0.22
		c1.56,1.72,2.38,4.01,2.52,6.31C40.34,13.95,39.66,16.39,38.65,18.61z"/>
</g>
</svg>
